<svg width="16" height="16" viewBox="0 0 16 16" fill="none" xmlns="http://www.w3.org/2000/svg">
<path fill-rule="evenodd" clip-rule="evenodd" d="M16 2.69124C16 4.02547 15.0291 5.1329 13.7552 5.34562C15.0291 5.55834 16 6.66581 16 8C16 9.33419 15.0291 10.4417 13.7552 10.6544C15.0291 10.8671 16 11.9746 16 13.3088C16 14.7951 14.7951 16 13.3088 16C11.9746 16 10.8671 15.0291 10.6544 13.7552C10.4417 15.0291 9.33419 16 8 16C6.66581 16 5.55834 15.0291 5.34562 13.7552C5.1329 15.0291 4.02547 16 2.69124 16C1.20491 16 0 14.7951 0 13.3088C0 11.9746 0.97092 10.8671 2.24476 10.6544C0.97092 10.4417 0 9.33419 0 8C0 6.66581 0.97092 5.55834 2.24476 5.34562C0.97092 5.1329 0 4.02547 0 2.69124C0 1.20491 1.20491 0 2.69124 0C4.02547 0 5.1329 0.97092 5.34562 2.24476C5.55834 0.97092 6.66581 0 8 0C9.33419 0 10.4417 0.97092 10.6544 2.24476C10.8671 0.97092 11.9746 0 13.3088 0C14.7951 0 16 1.20491 16 2.69124ZM5.34562 3.13773C5.15716 4.26635 4.26635 5.15716 3.13773 5.34562C4.26635 5.53408 5.15716 6.42492 5.34562 7.55355C5.53408 6.42492 6.42492 5.53408 7.55355 5.34562C6.42492 5.15716 5.53408 4.26635 5.34562 3.13773ZM8.44645 5.34562C9.57508 5.15716 10.4659 4.26635 10.6544 3.13773C10.8428 4.26635 11.7337 5.15716 12.8623 5.34562C11.7337 5.53408 10.8428 6.42492 10.6544 7.55355C10.4659 6.42492 9.57508 5.53408 8.44645 5.34562ZM10.6544 12.8623C10.8428 11.7337 11.7337 10.8428 12.8623 10.6544C11.7337 10.4659 10.8428 9.57508 10.6544 8.44645C10.4659 9.57508 9.57508 10.4659 8.44645 10.6544C9.57508 10.8428 10.4659 11.7337 10.6544 12.8623ZM5.34562 8.44645C5.53408 9.57508 6.42492 10.4659 7.55355 10.6544C6.42492 10.8428 5.53408 11.7337 5.34562 12.8623C5.15716 11.7337 4.26635 10.8428 3.13773 10.6544C4.26635 10.4659 5.15716 9.57508 5.34562 8.44645Z" fill="#5E6A9E"/>
</svg>
