<svg width="140" height="155" viewBox="0 0 140 155" fill="none" xmlns="http://www.w3.org/2000/svg">
<path d="M9.47397 36.0871L8.88246 34.9126L9.17604 34.4793L13.1543 36.8252L12.8695 37.2456C11.5508 36.8241 10.4968 36.6668 9.70723 36.7736C8.70223 36.9106 7.95436 37.3413 7.46361 38.0657C7.08678 38.622 6.90678 39.2266 6.9236 39.8797C6.94043 40.5328 7.18329 41.1911 7.65218 41.8548C8.124 42.5141 8.93125 43.2308 10.0739 44.0049C11.1821 44.7557 12.1277 45.2264 12.9107 45.4171C13.6966 45.6035 14.3786 45.5905 14.9565 45.3781C15.5302 45.1628 16.0054 44.777 16.3822 44.2208C16.8934 43.4662 17.0765 42.7409 16.9314 42.045C16.7893 41.3448 16.384 40.7683 15.7156 40.3155L14.8166 39.7064C14.6743 39.61 14.5264 39.5916 14.3728 39.6511C14.2221 39.7063 14.0621 39.859 13.8927 40.1091L13.345 40.9176L12.8922 40.6109L15.6089 36.6007L16.0616 36.9074L15.6936 37.4507C15.53 37.6922 15.4563 37.8939 15.4724 38.0558C15.4842 38.2148 15.5699 38.3483 15.7294 38.4564L19.3839 40.9321L19.0947 41.359C18.4203 41.1286 17.7653 40.9208 17.1297 40.7355C17.4409 41.4182 17.5784 42.0743 17.5419 42.7039C17.5041 43.3262 17.2938 43.9198 16.9111 44.4847C16.3649 45.2911 15.6511 45.899 14.7698 46.3085C13.8913 46.7137 12.9412 46.8626 11.9192 46.7554C10.8958 46.6409 9.90984 46.2623 8.96119 45.6197C8.00823 44.9741 7.29028 44.1952 6.80734 43.283C6.3244 42.3708 6.09601 41.4171 6.12218 40.422C6.15126 39.4225 6.4068 38.5671 6.88879 37.8556C7.16337 37.4503 7.49381 37.1111 7.88009 36.838C8.26498 36.5578 8.79627 36.3075 9.47397 36.0871Z" fill="white"/>
<path d="M26.6405 27.9345L22.7792 31.48C23.5522 32.2834 24.2376 32.7218 24.8353 32.7952C25.514 32.8721 26.1084 32.6763 26.6187 32.2077C27.3706 31.5173 27.5821 30.5347 27.2531 29.26L27.7751 29.0777C28.2154 30.6816 27.9061 31.9696 26.8473 32.9418C26.126 33.6041 25.2784 33.9015 24.3044 33.8342C23.3343 33.7634 22.4758 33.3213 21.7291 32.508C20.9259 31.6333 20.5194 30.7054 20.5097 29.7245C20.5002 28.7362 20.8503 27.9162 21.5601 27.2645C22.0818 26.7854 22.6559 26.5058 23.2823 26.4256C23.9086 26.3454 24.5485 26.4685 25.2018 26.795C25.6601 27.0246 26.1397 27.4045 26.6405 27.9345ZM22.4041 31.0715L24.7404 28.9262C24.8785 28.7994 24.9437 28.6547 24.9359 28.4922C24.9245 28.3258 24.8149 28.1295 24.6071 27.9031C24.2196 27.4811 23.7579 27.2439 23.2219 27.1916C22.6898 27.1357 22.2454 27.2716 21.8886 27.5992C21.4896 27.9656 21.3139 28.4557 21.3614 29.0696C21.4128 29.6801 21.7604 30.3473 22.4041 31.0715Z" fill="white"/>
<path d="M29.7969 17.4474L30.2484 17.1673L31.8215 19.7034L33.8331 18.4556L34.212 19.0664L32.2004 20.3142L34.6754 24.3042C34.8895 24.6495 35.1362 24.8642 35.4152 24.9485C35.6915 25.0284 35.9558 24.9901 36.2081 24.8336C36.5091 24.6469 36.6793 24.3483 36.7188 23.9377C36.7583 23.5271 36.5967 22.9899 36.234 22.3261L36.6788 22.0502C37.1657 22.8944 37.3592 23.6263 37.2594 24.2459C37.1568 24.8611 36.8267 25.3417 36.269 25.6876C35.7556 26.0061 35.2663 26.1165 34.8013 26.0189C34.3379 25.9141 33.9648 25.6337 33.682 25.1779L31.0917 21.0019L30.0095 21.6732L29.7213 21.2085C30.1604 20.8196 30.4067 20.3818 30.4603 19.8951C30.5361 19.1677 30.315 18.3518 29.7969 17.4474Z" fill="white"/>
<path d="M57.2279 6.41115L57.7223 5.28615L58.2818 5.17561L59.144 9.29759L58.6382 9.39754C58.071 8.19296 57.4182 7.36102 56.6798 6.9017C55.9464 6.44137 55.1761 6.29096 54.3688 6.45048C53.6943 6.58374 53.1824 6.8946 52.8329 7.38306C52.4835 7.87152 52.3663 8.40699 52.4814 8.98948C52.5531 9.35226 52.6979 9.65545 52.9159 9.89906C53.133 10.1376 53.4196 10.3119 53.7758 10.422C54.1361 10.526 54.7851 10.5862 55.7228 10.6027C57.0393 10.6293 57.9783 10.7331 58.5397 10.9141C59.1062 11.0942 59.557 11.3741 59.8922 11.7538C60.2263 12.1285 60.4499 12.6019 60.563 13.1742C60.7649 14.1961 60.5876 15.1124 60.0311 15.9232C59.4787 16.7278 58.6583 17.2377 57.57 17.4527C56.3999 17.6839 55.3084 17.5067 54.2954 16.9211L53.6384 18.1499L53.0865 18.2589L52.2188 13.8673L52.7706 13.7582C53.2245 14.9268 53.8936 15.7874 54.7779 16.34C55.6622 16.8926 56.5719 17.0765 57.5069 16.8918C58.2631 16.7424 58.8349 16.3984 59.2223 15.86C59.6137 15.3155 59.7464 14.7239 59.6202 14.0852C59.5485 13.7224 59.3965 13.4233 59.1641 13.1878C58.9308 12.9472 58.6018 12.7733 58.1771 12.6661C57.7514 12.5538 56.9426 12.4773 55.7507 12.4368C54.4403 12.3878 53.5214 12.2242 52.9939 11.9462C52.2523 11.5512 51.787 10.876 51.5982 9.92052C51.4014 8.92416 51.5571 8.04659 52.0655 7.28782C52.578 6.52293 53.3299 6.04255 54.3211 5.84669C54.7963 5.7528 55.2652 5.74776 55.7277 5.83157C56.1902 5.91538 56.6903 6.10857 57.2279 6.41115Z" fill="white"/>
<path d="M69.8889 5.73136L70.4201 5.73934L70.3753 8.72337L72.7422 8.75889L72.7314 9.47756L70.3645 9.44204L70.294 14.1368C70.2879 14.543 70.3796 14.8569 70.569 15.0786C70.7585 15.295 71.0017 15.4054 71.2985 15.4099C71.6526 15.4152 71.9571 15.2557 72.212 14.9313C72.4669 14.607 72.6209 14.0676 72.6739 13.3131L73.1972 13.3209C73.1514 14.2943 72.9192 15.0149 72.5007 15.4826C72.0822 15.9451 71.5449 16.1715 70.8887 16.1616C70.2846 16.1525 69.8132 15.9814 69.4744 15.6481C69.1409 15.3098 68.9782 14.8724 68.9862 14.336L69.06 9.42247L67.7867 9.40336L67.7949 8.85655C68.3744 8.76627 68.8181 8.53072 69.1259 8.14988C69.5825 7.57854 69.8368 6.77237 69.8889 5.73136Z" fill="white"/>
<path d="M87.0071 17.446L87.1909 17.9325C86.7376 18.2353 86.2842 18.3383 85.8309 18.2416C85.4845 18.1678 85.2117 18.0111 85.0125 17.7716C84.8184 17.5331 84.6827 17.158 84.6054 16.6463C84.0129 17.0525 83.5148 17.3031 83.1111 17.3981C82.7085 17.488 82.2499 17.4781 81.7355 17.3684C81.002 17.212 80.4779 16.9351 80.1632 16.5379C79.8485 16.1406 79.7438 15.6949 79.8491 15.2008C80.0077 14.4571 80.5747 13.9336 81.55 13.6303C82.5315 13.323 83.7655 13.2427 85.252 13.3892L85.4833 12.3042C85.5659 11.9171 85.4811 11.5529 85.229 11.2116C84.9769 10.8702 84.6115 10.6485 84.1327 10.5464C83.6895 10.4519 83.2879 10.4622 82.9279 10.5771C82.6694 10.6658 82.526 10.7763 82.4977 10.9088C82.4814 10.9852 82.5171 11.1179 82.6045 11.307C82.7088 11.5422 82.7441 11.7388 82.7105 11.8967C82.6616 12.1259 82.5475 12.2987 82.3683 12.4149C82.1902 12.526 81.9814 12.556 81.742 12.505C81.4873 12.4507 81.2918 12.3185 81.1556 12.1084C81.0244 11.8993 80.9876 11.6598 81.0452 11.3899C81.1527 10.8856 81.5337 10.4849 82.1882 10.1877C82.8477 9.89168 83.6385 9.84195 84.5605 10.0385C85.4112 10.2199 86.0215 10.5418 86.3916 11.0041C86.7606 11.4715 86.8886 11.9701 86.7756 12.4999L85.9414 16.412C85.8676 16.7583 85.8693 17.025 85.9466 17.2119C86.0228 17.4039 86.1501 17.5189 86.3284 17.5569C86.527 17.5992 86.7533 17.5623 87.0071 17.446ZM85.1444 13.8935C83.8126 13.7959 82.8338 13.8908 82.208 14.178C81.7405 14.3979 81.4469 14.7879 81.3275 15.3483C81.2438 15.7405 81.2825 16.0709 81.4436 16.3396C81.6057 16.6031 81.8549 16.7708 82.1911 16.8425C82.7922 16.9706 83.3601 16.8547 83.8948 16.4948C84.4357 16.1308 84.7795 15.605 84.9261 14.9174L85.1444 13.8935Z" fill="white"/>
<path d="M95.1168 13.2638L97.5819 14.198L96.3944 16.9104C97.0426 16.131 97.6483 15.5916 98.2114 15.2923C98.7746 14.9931 99.3233 14.9604 99.8577 15.1943C100.22 15.3531 100.46 15.5916 100.576 15.9098C100.7 16.2254 100.68 16.5692 100.517 16.9414C100.385 17.242 100.209 17.4434 99.9882 17.5456C99.7719 17.6499 99.5541 17.654 99.3346 17.558C99.1199 17.464 98.9771 17.3162 98.9062 17.1145C98.84 16.915 98.8602 16.6936 98.9667 16.4503C99.0356 16.2928 99.1386 16.1616 99.2755 16.0567C99.4014 15.9639 99.4695 15.9057 99.48 15.8818C99.5113 15.8102 99.4816 15.7546 99.391 15.7149C99.1954 15.6293 98.9234 15.6467 98.575 15.7671C98.0915 15.9363 97.6346 16.2594 97.2041 16.7361C96.5377 17.4791 96.0906 18.1107 95.863 18.6307L95.2332 20.0692C95.1622 20.2314 95.1651 20.3806 95.242 20.5166C95.3189 20.6526 95.4958 20.7812 95.7725 20.9023L96.6241 21.2752L96.3891 21.8119L92.2239 19.9884L92.4589 19.4516L93.1245 19.743C93.3487 19.8412 93.5369 19.8724 93.689 19.8367C93.8432 19.7961 93.9475 19.7139 94.0018 19.5898L95.8723 15.3173C96.0143 14.9928 96.0485 14.7264 95.9749 14.5179C95.9034 14.3046 95.7388 14.1416 95.4812 14.0288L94.8943 13.7719L95.1168 13.2638Z" fill="white"/>
<path d="M110.896 18.1209L111.334 18.4209L109.648 20.8836L111.602 22.2207L111.196 22.8138L109.242 21.4768L106.59 25.3514C106.361 25.6866 106.264 25.9989 106.299 26.2883C106.338 26.5733 106.48 26.7997 106.724 26.9674C107.017 27.1674 107.359 27.2027 107.75 27.0731C108.142 26.9435 108.568 26.5789 109.029 25.9793L109.461 26.2749C108.885 27.061 108.294 27.5334 107.686 27.6921C107.082 27.8465 106.509 27.7384 105.968 27.3677C105.469 27.0264 105.171 26.6233 105.072 26.1584C104.981 25.6921 105.087 25.2376 105.39 24.7949L108.166 20.7398L107.115 20.0206L107.424 19.5693C107.957 19.8141 108.457 19.8629 108.924 19.7155C109.62 19.4914 110.277 18.9598 110.896 18.1209Z" fill="white"/>
<path d="M120.102 34.7375L116.404 31.0218C115.632 31.8265 115.222 32.5289 115.172 33.1291C115.123 33.8103 115.342 34.3964 115.831 34.8874C116.551 35.611 117.541 35.7828 118.802 35.4028L119.005 35.917C117.42 36.4214 116.121 36.1642 115.107 35.1453C114.416 34.4513 114.085 33.6163 114.113 32.6404C114.145 31.6682 114.552 30.7927 115.335 30.0138C116.176 29.1761 117.087 28.7327 118.067 28.6835C119.054 28.6343 119.887 28.9512 120.567 29.6341C121.067 30.1362 121.369 30.6986 121.474 31.3212C121.58 31.9439 121.482 32.5882 121.183 33.254C120.972 33.7212 120.611 34.2157 120.102 34.7375ZM116.797 30.6305L119.035 32.8787C119.167 33.0116 119.314 33.0709 119.476 33.0566C119.642 33.0386 119.834 32.9212 120.051 32.7044C120.457 32.3003 120.676 31.8294 120.707 31.2918C120.741 30.7578 120.587 30.3192 120.246 29.9759C119.864 29.5919 119.367 29.4361 118.755 29.5083C118.147 29.5841 117.495 29.9582 116.797 30.6305Z" fill="white"/>
<path d="M133.093 38.7839L134.755 41.1147L126.338 46.544C126.01 46.7558 125.815 46.9681 125.754 47.181C125.696 47.3982 125.748 47.6316 125.908 47.8811L126.184 48.3078L125.691 48.6254L124.336 46.5246L125.488 45.5582C124.881 45.5967 124.355 45.5208 123.91 45.3307C123.472 45.142 123.119 44.8398 122.851 44.424C122.399 43.7238 122.307 42.9372 122.574 42.0643C122.845 41.1958 123.461 40.4509 124.424 39.8298C125.466 39.1578 126.501 38.9365 127.529 39.1658C128.334 39.347 128.943 39.7593 129.359 40.4027C129.613 40.7966 129.741 41.2124 129.745 41.6502C129.751 42.0924 129.63 42.5579 129.381 43.0468L132.854 40.8065C133.038 40.6879 133.136 40.5225 133.148 40.3103C133.167 40.0997 133.079 39.8434 132.884 39.5414L132.601 39.1015L133.093 38.7839ZM128.928 40.9314C128.623 40.4587 128.185 40.208 127.615 40.1792C127.048 40.1547 126.302 40.4403 125.379 41.0361C124.377 41.6826 123.762 42.2808 123.534 42.8307C123.31 43.3778 123.342 43.8745 123.63 44.3209C123.938 44.798 124.428 45.0582 125.101 45.1016C125.781 45.1465 126.56 44.8852 127.44 44.3177C128.272 43.7813 128.809 43.1776 129.052 42.5066C129.268 41.9204 129.227 41.3954 128.928 40.9314Z" fill="white"/>
<path d="M10.5002 98.5C3.46551 81.7171 2.59651 72.0473 10.5002 54" stroke="white"/>
<path d="M130 54C137.034 70.7829 137.903 80.4527 130 98.5" stroke="white"/>
<path d="M9.47397 118.1L8.88246 119.274L9.17604 119.707L13.1543 117.362L12.8695 116.941C11.5508 117.363 10.4968 117.52 9.70723 117.413C8.70223 117.276 7.95436 116.845 7.46361 116.121C7.08678 115.565 6.90678 114.96 6.9236 114.307C6.94043 113.654 7.18329 112.996 7.65218 112.332C8.124 111.673 8.93125 110.956 10.0739 110.182C11.1821 109.431 12.1277 108.96 12.9107 108.77C13.6966 108.583 14.3786 108.596 14.9565 108.809C15.5302 109.024 16.0054 109.41 16.3822 109.966C16.8934 110.721 17.0765 111.446 16.9314 112.142C16.7893 112.842 16.384 113.418 15.7156 113.871L14.8166 114.48C14.6743 114.577 14.5264 114.595 14.3728 114.536C14.2221 114.48 14.0621 114.328 13.8927 114.078L13.345 113.269L12.8922 113.576L15.6089 117.586L16.0616 117.279L15.6936 116.736C15.53 116.495 15.4563 116.293 15.4724 116.131C15.4842 115.972 15.5699 115.838 15.7294 115.73L19.3839 113.255L19.0947 112.828C18.4203 113.058 17.7653 113.266 17.1297 113.451C17.4409 112.768 17.5784 112.112 17.5419 111.483C17.5041 110.86 17.2938 110.267 16.9111 109.702C16.3649 108.896 15.6511 108.288 14.7698 107.878C13.8913 107.473 12.9412 107.324 11.9192 107.431C10.8958 107.546 9.90984 107.924 8.96119 108.567C8.00823 109.213 7.29028 109.992 6.80734 110.904C6.3244 111.816 6.09601 112.77 6.12218 113.765C6.15126 114.764 6.4068 115.62 6.88879 116.331C7.16337 116.736 7.49381 117.076 7.88009 117.349C8.26498 117.629 8.79627 117.879 9.47397 118.1Z" fill="white"/>
<path d="M26.6405 126.252L22.7792 122.707C23.5522 121.903 24.2376 121.465 24.8353 121.391C25.514 121.315 26.1084 121.51 26.6187 121.979C27.3706 122.669 27.5821 123.652 27.2531 124.927L27.7751 125.109C28.2154 123.505 27.9061 122.217 26.8473 121.245C26.126 120.583 25.2784 120.285 24.3044 120.352C23.3343 120.423 22.4758 120.865 21.7291 121.679C20.9259 122.553 20.5194 123.481 20.5097 124.462C20.5002 125.451 20.8503 126.271 21.5601 126.922C22.0818 127.401 22.6559 127.681 23.2823 127.761C23.9086 127.841 24.5485 127.718 25.2018 127.392C25.6601 127.162 26.1397 126.782 26.6405 126.252ZM22.4041 123.115L24.7404 125.261C24.8785 125.387 24.9437 125.532 24.9359 125.695C24.9245 125.861 24.8149 126.057 24.6071 126.284C24.2196 126.706 23.7579 126.943 23.2219 126.995C22.6898 127.051 22.2454 126.915 21.8886 126.587C21.4896 126.221 21.3139 125.731 21.3614 125.117C21.4128 124.507 21.7604 123.839 22.4041 123.115Z" fill="white"/>
<path d="M29.7969 136.739L30.2484 137.019L31.8215 134.483L33.8331 135.731L34.212 135.12L32.2004 133.872L34.6754 129.882C34.8895 129.537 35.1362 129.322 35.4152 129.238C35.6915 129.158 35.9558 129.197 36.2081 129.353C36.5091 129.54 36.6793 129.838 36.7188 130.249C36.7583 130.66 36.5967 131.197 36.234 131.861L36.6788 132.136C37.1657 131.292 37.3592 130.56 37.2594 129.941C37.1568 129.326 36.8267 128.845 36.269 128.499C35.7556 128.181 35.2663 128.07 34.8013 128.168C34.3379 128.273 33.9648 128.553 33.682 129.009L31.0917 133.185L30.0095 132.514L29.7213 132.978C30.1604 133.367 30.4067 133.805 30.4603 134.292C30.5361 135.019 30.315 135.835 29.7969 136.739Z" fill="white"/>
<path d="M57.2279 147.776L57.7223 148.901L58.2818 149.011L59.144 144.889L58.6382 144.789C58.071 145.994 57.4182 146.826 56.6798 147.285C55.9464 147.745 55.1761 147.896 54.3688 147.736C53.6943 147.603 53.1824 147.292 52.8329 146.804C52.4835 146.315 52.3663 145.78 52.4814 145.197C52.5531 144.834 52.6979 144.531 52.9159 144.288C53.133 144.049 53.4196 143.875 53.7758 143.765C54.1361 143.661 54.7851 143.6 55.7228 143.584C57.0393 143.557 57.9783 143.454 58.5397 143.273C59.1062 143.092 59.557 142.813 59.8922 142.433C60.2263 142.058 60.4499 141.585 60.563 141.013C60.7649 139.991 60.5876 139.074 60.0311 138.264C59.4787 137.459 58.6583 136.949 57.57 136.734C56.3999 136.503 55.3084 136.68 54.2954 137.266L53.6384 136.037L53.0865 135.928L52.2188 140.319L52.7706 140.428C53.2245 139.26 53.8936 138.399 54.7779 137.847C55.6622 137.294 56.5719 137.11 57.5069 137.295C58.2631 137.444 58.8349 137.788 59.2223 138.327C59.6137 138.871 59.7464 139.463 59.6202 140.102C59.5485 140.464 59.3965 140.763 59.1641 140.999C58.9308 141.239 58.6018 141.413 58.1771 141.521C57.7514 141.633 56.9426 141.709 55.7507 141.75C54.4403 141.799 53.5214 141.962 52.9939 142.24C52.2523 142.635 51.787 143.311 51.5982 144.266C51.4014 145.263 51.5571 146.14 52.0655 146.899C52.578 147.664 53.3299 148.144 54.3211 148.34C54.7963 148.434 55.2652 148.439 55.7277 148.355C56.1902 148.271 56.6903 148.078 57.2279 147.776Z" fill="white"/>
<path d="M69.8889 148.455L70.4201 148.447L70.3753 145.463L72.7422 145.428L72.7314 144.709L70.3645 144.745L70.294 140.05C70.2879 139.644 70.3796 139.33 70.569 139.108C70.7585 138.892 71.0017 138.781 71.2985 138.777C71.6526 138.772 71.9571 138.931 72.212 139.255C72.4669 139.58 72.6209 140.119 72.6739 140.874L73.1972 140.866C73.1514 139.892 72.9192 139.172 72.5007 138.704C72.0822 138.242 71.5449 138.015 70.8887 138.025C70.2846 138.034 69.8132 138.205 69.4744 138.539C69.1409 138.877 68.9782 139.314 68.9862 139.851L69.06 144.764L67.7867 144.783L67.7949 145.33C68.3744 145.42 68.8181 145.656 69.1259 146.037C69.5825 146.608 69.8368 147.414 69.8889 148.455Z" fill="white"/>
<path d="M87.0071 136.741L87.1909 136.254C86.7376 135.951 86.2842 135.848 85.8309 135.945C85.4845 136.019 85.2117 136.176 85.0125 136.415C84.8184 136.654 84.6827 137.029 84.6054 137.54C84.0129 137.134 83.5148 136.884 83.1111 136.789C82.7085 136.699 82.2499 136.709 81.7355 136.818C81.002 136.975 80.4779 137.252 80.1632 137.649C79.8485 138.046 79.7438 138.492 79.8491 138.986C80.0077 139.73 80.5747 140.253 81.55 140.556C82.5315 140.864 83.7655 140.944 85.252 140.797L85.4833 141.882C85.5659 142.27 85.4811 142.634 85.229 142.975C84.9769 143.316 84.6115 143.538 84.1327 143.64C83.6895 143.735 83.2879 143.725 82.9279 143.61C82.6694 143.521 82.526 143.41 82.4977 143.278C82.4814 143.202 82.5171 143.069 82.6045 142.88C82.7088 142.644 82.7441 142.448 82.7105 142.29C82.6616 142.061 82.5475 141.888 82.3683 141.772C82.1902 141.661 81.9814 141.631 81.742 141.682C81.4873 141.736 81.2918 141.868 81.1556 142.078C81.0244 142.287 80.9876 142.527 81.0452 142.797C81.1527 143.301 81.5337 143.702 82.1882 143.999C82.8477 144.295 83.6385 144.345 84.5605 144.148C85.4112 143.967 86.0215 143.645 86.3916 143.183C86.7606 142.715 86.8886 142.217 86.7756 141.687L85.9414 137.775C85.8676 137.428 85.8693 137.162 85.9466 136.975C86.0228 136.783 86.1501 136.668 86.3284 136.63C86.527 136.587 86.7533 136.624 87.0071 136.741ZM85.1444 140.293C83.8126 140.391 82.8338 140.296 82.208 140.009C81.7405 139.789 81.4469 139.399 81.3275 138.838C81.2438 138.446 81.2825 138.116 81.4436 137.847C81.6057 137.584 81.8549 137.416 82.1911 137.344C82.7922 137.216 83.3601 137.332 83.8948 137.692C84.4357 138.056 84.7795 138.582 84.9261 139.269L85.1444 140.293Z" fill="white"/>
<path d="M95.1168 140.923L97.5819 139.989L96.3944 137.276C97.0426 138.056 97.6483 138.595 98.2114 138.894C98.7746 139.194 99.3233 139.226 99.8577 138.992C100.22 138.834 100.46 138.595 100.576 138.277C100.7 137.961 100.68 137.617 100.517 137.245C100.385 136.945 100.209 136.743 99.9882 136.641C99.7719 136.537 99.5541 136.533 99.3346 136.629C99.1199 136.723 98.9771 136.871 98.9062 137.072C98.84 137.272 98.8602 137.493 98.9667 137.736C99.0356 137.894 99.1386 138.025 99.2755 138.13C99.4014 138.223 99.4695 138.281 99.48 138.305C99.5113 138.376 99.4816 138.432 99.391 138.472C99.1954 138.557 98.9234 138.54 98.575 138.42C98.0915 138.25 97.6346 137.927 97.2041 137.451C96.5377 136.708 96.0906 136.076 95.863 135.556L95.2332 134.117C95.1622 133.955 95.1651 133.806 95.242 133.67C95.3189 133.534 95.4958 133.406 95.7725 133.284L96.6241 132.912L96.3891 132.375L92.2239 134.198L92.4589 134.735L93.1245 134.444C93.3487 134.345 93.5369 134.314 93.689 134.35C93.8432 134.391 93.9475 134.473 94.0018 134.597L95.8723 138.869C96.0143 139.194 96.0485 139.46 95.9749 139.669C95.9034 139.882 95.7388 140.045 95.4812 140.158L94.8943 140.415L95.1168 140.923Z" fill="white"/>
<path d="M110.896 136.066L111.334 135.766L109.648 133.303L111.602 131.966L111.196 131.373L109.242 132.71L106.59 128.835C106.361 128.5 106.264 128.188 106.299 127.898C106.338 127.613 106.48 127.387 106.724 127.219C107.017 127.019 107.359 126.984 107.75 127.114C108.142 127.243 108.568 127.608 109.029 128.207L109.461 127.912C108.885 127.126 108.294 126.653 107.686 126.495C107.082 126.34 106.509 126.448 105.968 126.819C105.469 127.16 105.171 127.563 105.072 128.028C104.981 128.495 105.087 128.949 105.39 129.392L108.166 133.447L107.115 134.166L107.424 134.617C107.957 134.373 108.457 134.324 108.924 134.471C109.62 134.695 110.277 135.227 110.896 136.066Z" fill="white"/>
<path d="M120.102 119.449L116.404 123.165C115.632 122.36 115.222 121.658 115.172 121.058C115.123 120.376 115.342 119.79 115.831 119.299C116.551 118.576 117.541 118.404 118.802 118.784L119.005 118.27C117.42 117.765 116.121 118.022 115.107 119.041C114.416 119.735 114.085 120.57 114.113 121.546C114.145 122.518 114.552 123.394 115.335 124.173C116.176 125.011 117.087 125.454 118.067 125.503C119.054 125.552 119.887 125.236 120.567 124.553C121.067 124.05 121.369 123.488 121.474 122.865C121.58 122.243 121.482 121.599 121.183 120.933C120.972 120.465 120.611 119.971 120.102 119.449ZM116.797 123.556L119.035 121.308C119.167 121.175 119.314 121.116 119.476 121.13C119.642 121.148 119.834 121.266 120.051 121.482C120.457 121.886 120.676 122.357 120.707 122.895C120.741 123.429 120.587 123.868 120.246 124.211C119.864 124.595 119.367 124.751 118.755 124.678C118.147 124.603 117.495 124.228 116.797 123.556Z" fill="white"/>
<path d="M133.093 115.403L134.755 113.072L126.338 107.643C126.01 107.431 125.815 107.219 125.754 107.006C125.696 106.788 125.748 106.555 125.908 106.306L126.184 105.879L125.691 105.561L124.336 107.662L125.488 108.629C124.881 108.59 124.355 108.666 123.91 108.856C123.472 109.045 123.119 109.347 122.851 109.763C122.399 110.463 122.307 111.25 122.574 112.122C122.845 112.991 123.461 113.736 124.424 114.357C125.466 115.029 126.501 115.25 127.529 115.021C128.334 114.84 128.943 114.427 129.359 113.784C129.613 113.39 129.741 112.974 129.745 112.536C129.751 112.094 129.63 111.629 129.381 111.14L132.854 113.38C133.038 113.499 133.136 113.664 133.148 113.876C133.167 114.087 133.079 114.343 132.884 114.645L132.601 115.085L133.093 115.403ZM128.928 113.255C128.623 113.728 128.185 113.979 127.615 114.008C127.048 114.032 126.302 113.746 125.379 113.151C124.377 112.504 123.762 111.906 123.534 111.356C123.31 110.809 123.342 110.312 123.63 109.866C123.938 109.389 124.428 109.128 125.101 109.085C125.781 109.04 126.56 109.301 127.44 109.869C128.272 110.405 128.809 111.009 129.052 111.68C129.268 112.266 129.227 112.791 128.928 113.255Z" fill="white"/>
<circle cx="70.8936" cy="76" r="50" fill="#353E5B"/>
<path d="M74.9436 87.9L72.7936 85.8L81.1936 77.4H54.8936V74.4H81.1936L72.7436 65.95L74.8936 63.85L86.9436 75.9L74.9436 87.9Z" fill="white"/>
</svg>
