<svg width="29" height="28" viewBox="0 0 29 28" fill="none" xmlns="http://www.w3.org/2000/svg">
<path d="M14.4996 0.559998C7.07677 0.559998 1.05957 6.5772 1.05957 14C1.05957 21.4228 7.07677 27.44 14.4996 27.44C21.9224 27.44 27.9396 21.4228 27.9396 14C27.9396 6.5772 21.9224 0.559998 14.4996 0.559998ZM11.2096 19.5706H8.48797V10.8122H11.2096V19.5706ZM9.83197 9.737C8.97237 9.737 8.41657 9.128 8.41657 8.3748C8.41657 7.6062 8.98917 7.0154 9.86697 7.0154C10.7448 7.0154 11.2824 7.6062 11.2992 8.3748C11.2992 9.128 10.7448 9.737 9.83197 9.737ZM21.1496 19.5706H18.428V14.7168C18.428 13.587 18.0332 12.8198 17.049 12.8198C16.2972 12.8198 15.8506 13.3392 15.6532 13.839C15.5804 14.0168 15.5622 14.2688 15.5622 14.5194V19.5692H12.8392V13.6052C12.8392 12.5118 12.8042 11.5976 12.7678 10.8108H15.1324L15.257 12.0274H15.3116C15.67 11.4562 16.5478 10.6134 18.0164 10.6134C19.807 10.6134 21.1496 11.8132 21.1496 14.392V19.5706Z" fill="#0A66C2"/>
</svg>
